<?xml version="1.0" encoding="UTF-8"?>
<svg id="Layer_1" xmlns="http://www.w3.org/2000/svg" version="1.1" viewBox="0 0 1810.2 625.2">
  <!-- Generator: Adobe Illustrator 29.8.1, SVG Export Plug-In . SVG Version: 2.1.1 Build 2)  -->
  <defs>
    <style>
      .st0 {
        fill: #fff;
      }
    </style>
  </defs>
  <g>
    <path class="st0" d="M892.04,278.88c.74-.42,1.39-.63,1.97-.63h1.81c.37,0,.99-.03,1.89-.08,4.04-.37,6.43-.74,7.17-1.1,1.84-1,3.41-2.73,4.73-5.2,2.73-5.35,5.8-12.95,9.22-22.77,1.63-4.67,2.65-7.51,3.07-8.51,1.31-3.15,2.57-6.46,3.78-9.93l7.41-20.72c1.16-3.26,3.94-10.71,8.35-22.37,1.1-2.94,2.44-6.88,4.02-11.82l2.32-.16,2.75.08c2.25,4.46,4.25,9.27,5.98,14.42.94,2.73,2.49,6.8,4.64,12.21l11.96,32.38,6.38,17.57c3.36,9.98,5.56,16.11,6.62,18.4,1.05,2.28,2.02,3.79,2.91,4.53.26.21,1.25.53,2.95.95,1.71.42,2.9.74,3.59.95,2.41.68,4.1,1.26,5.04,1.73.21.58.31,1.02.31,1.34,0,.26-.08.66-.24,1.18-1.68.05-2.86.08-3.54.08-2.68,0-7.41-.08-14.18-.24l-7.88-.18-9.53.12c-.63,0-1.27-.03-1.93-.09-.66-.06-1.22-.09-1.7-.09h-1.73c-.58-.05-1.1-.21-1.57-.48,0-.74.13-1.44.39-2.13.63-.31,1.21-.5,1.73-.55l8.27-.55c2.15-.11,3.78-.4,4.88-.87.32-.95.48-1.66.48-2.13,0-.95-.69-3.39-2.05-7.34-.94-2.63-1.77-5.13-2.48-7.49-.71-2.37-3.5-10.16-8.38-23.36-2.15-.37-4.05-.56-5.67-.56l-16.86.16-4.96-.08c-1.79,0-3.76.13-5.91.4-.68,1.57-1.13,2.7-1.34,3.39l-6.94,21.66c-2.94,8.25-4.41,12.79-4.41,13.63,0,.47.24,1.26.71,2.36,1.1.32,2.57.61,4.41.87l10.71.95c.58.47.87.89.87,1.26,0,.26-.08.66-.24,1.18-2.36.05-4.17.08-5.44.08-4.2,0-9.09-.13-14.65-.39-2.57-.11-4.41-.16-5.52-.16s-3.02.05-5.75.16c-1.79.11-3.07.16-3.86.16-1.26,0-2.89-.08-4.89-.24v-.48c0-.37.11-.87.32-1.49ZM929.64,231.61c5.62.32,12.03.48,19.22.48,4.1,0,7.69-.13,10.79-.4-.53-2.05-1.13-3.96-1.81-5.75-3.41-9.13-5.3-14.17-5.67-15.12l-7.16-18.19-.79-1.42c-.32.63-1.47,3.34-3.47,8.11-3.37,8.19-5.79,14.57-7.26,19.14-.69,2.05-1.4,4.08-2.13,6.1-.74,2.02-1.2,3.44-1.38,4.26-.19.81-.46,1.64-.83,2.48l.48.32Z"/>
    <path class="st0" d="M1004.57,279.51c1.63-1.1,4.57-1.89,8.82-2.36,3.31-.16,5.28-.45,5.91-.86.42-.31.74-.71.95-1.18.79-1.93,1.37-7.19,1.73-15.77.48-11.19,1.26-26.08,2.33-44.67.85-14.18,1.28-23.03,1.28-26.55v-2.05c-3.79-.79-9.8-1.63-18.03-2.52-.53-.79-.79-1.39-.79-1.81,0-.26.18-.74.55-1.42.89-.32,1.57-.48,2.04-.48.42,0,1.34.11,2.75.32,2.57.37,6.1.56,10.61.56,1.47,0,3.98-.12,7.55-.36,2.52-.18,3.93-.27,4.24-.27.84,0,1.81.16,2.91.47.54.53.94,1.04,1.22,1.52l3.3,7.4,22.3,49.32,9.29,20.71c7.27-14.45,12.92-27.29,16.95-38.53.26-.84.58-1.6.94-2.29.47-.89.92-1.89,1.33-2.99.42-1.11,2.12-5.31,5.11-12.61,1.2-2.94,2.17-5.46,2.9-7.56,2.98-8.4,4.74-13.21,5.26-14.42,1-.42,1.87-.63,2.61-.63.84,0,1.92.08,3.23.24,2.95.16,7.74.24,14.38.24,4.1,0,7.47-.05,10.11-.16.11.58.16,1,.16,1.26,0,.37-.08.87-.24,1.5-1.68.89-3.7,1.39-6.06,1.5-4.68.26-7.64.63-8.9,1.1-1.26.47-2.06,1.08-2.4,1.81-.34.74-.64,3.15-.91,7.25l.08,3.63-.08,3.78c0,7.88.21,21.11.63,39.71l-.08,15.44.08,9.93c0,3.89.19,6.18.55,6.89.37.71,1.42,1.38,3.15,2.01,2.83.95,7.46,1.92,13.86,2.91.37.26.55.61.55,1.03,0,.47-.03,1-.08,1.58h-3.63c-3.1,0-6.47-.09-10.1-.28-3.63-.19-5.58-.28-5.84-.28-10.78,0-17.94.12-21.47.36-2.15.18-3.52.27-4.1.27-.37,0-.77-.11-1.19-.32v-1.02c0-.48.08-.97.24-1.5,1.73-.74,4.1-1.24,7.09-1.5,3.31-.9,5.72-1.84,7.25-2.84.47-2,.71-6.07.71-12.23l-.24-15.93c0-1.73.09-4.97.28-9.7.18-4.73.27-12.43.27-23.1,0-8.47-.21-14.88-.63-19.24-.89,1.84-2.64,5.83-5.25,11.97l-1.18,2.99-.16.47-11.61,27.57-4.16,10.64-5.41,12.92c-2.36,5.93-4.37,11.19-6.04,15.75-.74,2.1-1.34,3.76-1.8,4.97l-1.84-.08c-5.94-17.33-13.03-35.11-21.26-53.34-8.23-18.22-14-30.25-17.31-36.08-.43,2.26-.92,8.82-1.46,19.7-.7,13.24-1.06,27.81-1.06,43.72,0,4.98.37,10.57,1.11,16.8.21,1.78.97,3.1,2.28,3.97,1.31.86,4.7,1.35,10.16,1.45,2.1,0,4.1.16,5.99.47.37.81.55,1.4.55,1.78,0,.27-.13.73-.39,1.37l-24.46-.87c-1.78,0-4.56.12-8.34.35-2.09.14-5.11.24-9.04.28l-.08-2.13Z"/>
    <path class="st0" d="M1141.83,280.2c.52-.46.97-.74,1.34-.85.89-.26,2.41-.48,4.57-.63,5.1-.32,8.25-.79,9.45-1.42.74-1.05,1.11-2.52,1.11-4.42l-.08-5.52.08-20.04-.16-9.47.08-19.81-.4-22.49c-.05-5.37-.39-8.4-1.02-9.08-.95-1-3.76-1.58-8.43-1.74-1.99-.05-3.76-.21-5.28-.48-.68-.37-1.02-.84-1.02-1.42,0-.42.13-.92.39-1.5.48-.26.9-.39,1.26-.39.74,0,1.63.02,2.68.08,3.1.32,6.3.48,9.61.48l5.83-.16,13.86.32c6.94,0,12.34-.08,16.23-.24,3.89-.16,6.51-.24,7.88-.24,1.21,0,4.2.11,8.98.32l11.19-.08,1.34.24,6.54-.24.79.4c.26.42.45.87.55,1.34,0,.74-.12,1.87-.35,3.39s-.35,2.47-.35,2.83c0,5.46.18,10.09.55,13.87-.05.32-.21.53-.46.63-.57,0-1.09-.08-1.55-.24-.58-1-1.35-2.76-2.33-5.28-.97-2.52-2.43-5.43-4.37-8.74-1.32-2.2-2.34-3.52-3.07-3.94-.74-.42-2.26-.63-4.57-.63-.48,0-2.87-.05-7.17-.16-1.16-.05-2.29-.08-3.39-.08l-22.47.47h-1.97c-2.89,0-4.63.37-5.2,1.1-.9,1.26-1.34,4.96-1.34,11.11,0,.63.13,6.94.4,18.91v10.95c.58.16,1.21.24,1.89.24h1.34c.89,0,2.2.03,3.94.08,2.73.11,4.57.16,5.51.16.63,0,1.18-.03,1.66-.08,5.67-.21,12.97-.32,21.9-.32,2.78-.48,4.41-1.03,4.89-1.66.79-.95,1.38-3.41,1.77-7.41.4-3.99,1.27-6.25,2.64-6.78.68,0,1.31.13,1.89.4.11.42.16.82.16,1.18s-.05.97-.16,1.81c-.26,1.94-.39,8.04-.39,18.28,0,2.73.14,5.78.43,9.14.29,3.36.43,5.17.43,5.43,0,.48-.08,1.1-.24,1.89-.42.21-.76.32-1.02.32h-.55c-.84-1.47-1.66-3.76-2.44-6.85-1.37-5.3-2.8-8.63-4.29-9.97-1.5-1.34-3.92-2.01-7.29-2.01-.74,0-2.07.04-4.02.12-1.94.08-4.83.12-8.66.12h-5.12c-7.3,0-12.08.16-14.34.48l-.08,2.6.08,14.52-.08,9.16.08,8.92c.05,5.37.39,8.47,1.02,9.31.9,1.16,2.84,1.74,5.83,1.74l4.8-.08c.42,0,2.06.04,4.93.12,2.86.08,6.39.12,10.59.12,10.14,0,16.89-.43,20.25-1.3,3.36-.87,6.13-2.41,8.31-4.62,2.18-2.21,4.92-6.98,8.23-14.31,1-2.16,2-3.24,2.99-3.24.47,0,1,.21,1.58.63-1.53,5.2-2.39,8.61-2.6,10.24-.58,3.68-.92,7.44-1.02,11.27,0,1.73-.42,3.18-1.26,4.33h-1.73l-22.14.24-9.93-.08-23.63.32h-9.61c-1.21,0-2.33.03-3.39.08-9.45.42-16.42.63-20.88.63-.79,0-1.33-.13-1.62-.38-.29-.26-.43-.64-.43-1.15l.08-.77Z"/>
    <path class="st0" d="M1245.1,278.96c7.63-.89,11.94-1.52,12.94-1.89.68-.26,1.3-1.05,1.88-2.36v-.87c0-1.31.21-6.06.63-14.25.11-2.31.16-4.57.16-6.77l-.24-9.37.16-10.63-.08-19.75.08-14.17c.05-5.98-.41-9.63-1.38-10.94-.97-1.31-3.48-2.24-7.52-2.79-4.05-.56-6.27-.96-6.7-1.22-.42-.26-.63-.69-.63-1.26,0-.37.08-.84.24-1.42.53-.48,1.73-.74,3.63-.79.26,0,.98-.06,2.17-.19,1.18-.13,2.3-.2,3.35-.2h6.46l20.72-.24c11.71,0,19.92.87,24.62,2.6,4.7,1.73,8.44,4.66,11.23,8.78,2.78,4.13,4.18,8.74,4.18,13.83,0,9.67-5.06,17.04-15.19,22.14-1.73.9-3.1,1.68-4.09,2.36,1.78,3.78,4.27,8.32,7.47,13.61l9.99,17.16c3.99,6.31,6.75,10.27,8.27,11.88,1.53,1.6,3.38,2.93,5.56,3.99,2.18,1.05,5.85,2.05,10.99,3,.05.52.08.94.08,1.26s-.03.71-.08,1.18c-7.2.11-15.62.16-25.29.16-.68,0-1.63-.05-2.83-.16-3.73-7.15-8.11-15.02-13.16-23.59l-11.66-21.31c-1.57-2.21-2.87-3.59-3.9-4.14-1.02-.55-2.38-.83-4.05-.83l-6.7.08-2.2-.08c-.16,1.68-.24,5.12-.24,10.32v26.94c-.05,1,.16,2.39.63,4.18.42,1,1.14,1.8,2.17,2.4,1.02.61,3.98,1.51,8.86,2.72l3.23.79c.42.53.63,1.23.63,2.13-1.42.26-2.41.39-2.99.39-4.72,0-8.05-.05-9.99-.16-1-.05-1.81-.08-2.44-.08l-10.7.16-10.46-.08c-.47,0-2.86.08-7.15.24l-1.57-.32-.16-.79c0-.48.37-1.03,1.1-1.66ZM1274.33,227.44c1.42.05,2.47.08,3.15.08,3.78,0,8.14-.45,13.08-1.34,3.47-.68,6.27-1.79,8.43-3.34s3.95-3.84,5.4-6.88c1.44-3.04,2.17-6.19,2.17-9.44,0-3.57-1.13-7.34-3.39-11.32-1.73-3.04-4.66-5.59-8.78-7.63-4.13-2.04-9.08-3.07-14.85-3.07-1.42,0-3.26.08-5.52.24-.21,2.73-.32,4.82-.32,6.29l.4,14.7-.08,6.06c0,4.09.11,9.3.32,15.65Z"/>
    <path class="st0" d="M1347,278.88c1.16-.48,2.34-.76,3.55-.87,8.04-.53,12.63-1.48,13.79-2.88,1.15-1.39,1.73-8.13,1.73-20.23l-.08-8.28v-8.67l-.32-9.54.16-5.6-.08-6.15v-7.25l-.16-3.23.16-4.1c.05-.95.08-2.05.08-3.31,0-3.31-.16-6.8-.47-10.49-.21-.74-.5-1.45-.87-2.13-1.94-1-5.08-1.67-9.41-2.01-4.34-.34-6.79-.72-7.37-1.14-.42-.32-.66-1.13-.71-2.44h6.63l20.91.47c5.37,0,12.52-.16,21.47-.47,0,.84-.05,1.63-.16,2.36-1.05.26-2.81.55-5.28.87-4.99.58-8.03,1.13-9.14,1.66-.68.26-1.18.71-1.5,1.34-.53.95-.84,2.71-.94,5.29l-.4,10.17.32,35.09v13.87c-.11,4.37-.16,7.33-.16,8.91,0,5.89.15,9.64.43,11.28.29,1.63.79,2.8,1.5,3.51.71.71,1.88,1.27,3.51,1.69,2.41.58,4.31.9,5.67.95,2.94.11,4.8.53,5.59,1.26.16.68.24,1.26.24,1.73v.63c-4.79.16-8.31.24-10.57.24-1.32,0-3.66-.08-7.02-.24l-10.89.16-18.55-.08h-1.5l-.16-2.36Z"/>
    <path class="st0" d="M1484.87,184.97c.63,4.05.95,8.19.95,12.45,0,.84-.03,1.97-.08,3.39-.74.16-1.29.24-1.65.24-.32,0-.76-.05-1.34-.16-2.21-6.14-5.8-10.87-10.8-14.18-4.99-3.31-11.16-4.96-18.51-4.96-3.89,0-7.17.45-9.85,1.34-4.73,1.63-8.88,3.88-12.45,6.74-3.57,2.86-6.59,6.27-9.06,10.24-2.47,3.97-4.42,8.77-5.87,14.42-1.44,5.65-2.17,11.41-2.17,17.29,0,11.24,1.71,20.52,5.12,27.85,3.42,7.33,8.09,12.55,14.02,15.68,5.93,3.12,11.92,4.69,17.96,4.69l3.71-.08c4.2-.53,7.06-1.02,8.58-1.5,3.84-1.1,7-2.4,9.49-3.9,2.49-1.5,4.94-3.61,7.33-6.34,2.39-2.73,4.42-5.91,6.1-9.53l.95-.31c.26,0,.66.16,1.18.47-.05,1.26-.11,2.07-.16,2.44-2.21,8.87-3.81,14.94-4.81,18.2-.84.21-1.89.53-3.15.94-6.14,2.1-14.37,3.15-24.66,3.15-8.3,0-14.51-.57-18.64-1.7-4.12-1.13-8.61-2.89-13.47-5.28-4.86-2.39-9.13-5.56-12.8-9.49-3.68-3.94-6.65-8.92-8.9-14.93-2.26-6.01-3.39-12.57-3.39-19.66,0-6.72.89-12.59,2.68-17.61,1.78-5.02,4.54-10.1,8.27-15.25,3.73-5.15,8.13-9.42,13.19-12.84,5.07-3.42,10.7-5.83,16.9-7.25,4.36-.95,10.53-1.42,18.51-1.42,5.83,0,11.31.78,16.47,2.33,5.14,1.55,8.58,3.06,10.32,4.53Z"/>
    <path class="st0" d="M1491.16,278.88c.74-.42,1.39-.63,1.97-.63h1.81c.37,0,1-.03,1.89-.08,4.04-.37,6.43-.74,7.17-1.1,1.84-1,3.41-2.73,4.72-5.2,2.73-5.35,5.81-12.95,9.22-22.77,1.63-4.67,2.65-7.51,3.07-8.51,1.31-3.15,2.57-6.46,3.79-9.93l7.41-20.72c1.16-3.26,3.94-10.71,8.35-22.37,1.1-2.94,2.44-6.88,4.02-11.82l2.32-.16,2.75.08c2.25,4.46,4.25,9.27,5.98,14.42.95,2.73,2.49,6.8,4.64,12.21l11.96,32.38,6.37,17.57c3.36,9.98,5.57,16.11,6.62,18.4,1.05,2.28,2.02,3.79,2.91,4.53.26.21,1.25.53,2.95.95,1.71.42,2.9.74,3.59.95,2.41.68,4.1,1.26,5.04,1.73.21.58.32,1.02.32,1.34,0,.26-.08.66-.24,1.18-1.68.05-2.86.08-3.55.08-2.67,0-7.4-.08-14.18-.24l-7.88-.18-9.53.12c-.63,0-1.27-.03-1.93-.09-.66-.06-1.22-.09-1.7-.09h-1.73c-.58-.05-1.1-.21-1.58-.48,0-.74.13-1.44.4-2.13.63-.31,1.21-.5,1.73-.55l8.27-.55c2.15-.11,3.78-.4,4.88-.87.32-.95.47-1.66.47-2.13,0-.95-.68-3.39-2.05-7.34-.95-2.63-1.77-5.13-2.48-7.49-.71-2.37-3.5-10.16-8.38-23.36-2.15-.37-4.04-.56-5.67-.56l-16.86.16-4.96-.08c-1.79,0-3.76.13-5.91.4-.69,1.57-1.13,2.7-1.34,3.39l-6.94,21.66c-2.94,8.25-4.41,12.79-4.41,13.63,0,.47.24,1.26.71,2.36,1.1.32,2.57.61,4.41.87l10.72.95c.58.47.87.89.87,1.26,0,.26-.08.66-.24,1.18-2.36.05-4.18.08-5.44.08-4.2,0-9.09-.13-14.65-.39-2.57-.11-4.41-.16-5.51-.16s-3.02.05-5.75.16c-1.78.11-3.07.16-3.86.16-1.26,0-2.89-.08-4.88-.24v-.48c0-.37.11-.87.32-1.49ZM1528.76,231.61c5.62.32,12.03.48,19.22.48,4.1,0,7.69-.13,10.79-.4-.53-2.05-1.13-3.96-1.81-5.75-3.41-9.13-5.3-14.17-5.67-15.12l-7.16-18.19-.79-1.42c-.32.63-1.47,3.34-3.47,8.11-3.36,8.19-5.79,14.57-7.26,19.14-.68,2.05-1.39,4.08-2.13,6.1-.74,2.02-1.2,3.44-1.38,4.26-.19.81-.46,1.64-.83,2.48l.47.32Z"/>
    <path class="st0" d="M1603.54,185.05l-.08-3.78c8.14,0,14.1-.21,17.88-.63,1.47-.16,2.49-.24,3.07-.24.47,0,1.18.02,2.12.08,2.21,1.84,4.26,3.94,6.15,6.3.42.47.89,1,1.42,1.58l16.62,18.35,2.36,2.83c3.36,3.94,6.42,7.3,9.18,10.09,2.76,2.78,8.13,8.59,16.11,17.41l18.83,20.88c1.84,2.05,4.2,4.6,7.09,7.64l.08-1.26c-.32-7.3-.48-11.16-.48-11.58l.32-4.73-.16-7.41v-3.39c0-2.15-.19-8.79-.55-19.93-.05-1.52-.27-4.4-.63-8.63-.37-4.23-.55-7.94-.55-11.15,0-5.77-.34-9.13-1.03-10.08-.47-.68-2.7-1.39-6.7-2.13-.95-.05-2.42-.21-4.41-.47-2.36-.11-3.76-.24-4.18-.4-.42-.16-.84-.6-1.26-1.34.11-.84.34-1.62.71-2.36,1.42-.42,2.81-.63,4.18-.63,1.47,0,3.29.19,5.48.55,2.18.37,4.13.55,5.87.55,2.41,0,6.17-.16,11.27-.47,2.89-.21,4.88-.32,5.99-.32h1.34l-.16,2.44c-.84.37-1.99.59-3.47.67-1.47.08-2.83.3-4.1.67-1.89.58-3.02,1.08-3.39,1.5-1.26,1.37-1.89,2.75-1.89,4.17l.87,24.9.63,11.42-.08,3.31.48,15.83c.32,10.82.47,20.22.47,28.2,0,1.73-.11,5.49-.32,11.26l-3.67.32c-1.84-2.1-8.17-8.71-18.99-19.85-2.52-2.57-4.23-4.39-5.12-5.44l-6.78-7.8c-2.62-2.89-4.34-4.73-5.12-5.51-.79-.79-1.37-1.37-1.73-1.73-5.73-6.51-13.16-14.66-22.3-24.42-2.47-2.63-6.09-6.73-10.88-12.29-2.99-3.52-4.89-5.67-5.67-6.46-.79-.79-1.87-1.68-3.23-2.68l-.24,2.68c0,10.24.26,24.37.79,42.38l.56,26.08c.05,2.2.18,4.33.39,6.38l2.76.63c4.99.47,9.9,1.18,14.73,2.13.37.31.68.55.95.71l-.08,2.99c-.84.26-1.53.4-2.05.4-.58,0-1.29-.05-2.13-.16-5.2-.42-11.53-.63-18.98-.63-5.25,0-9.87.13-13.87.4l-1.1.08c-.48,0-1.16-.05-2.05-.16l-.08-2.36,2.05-.95,3.7-.55c3.31-.47,5.72-1,7.25-1.57,1-.37,1.81-.92,2.44-1.66.58-3.62.87-8.93.87-15.91,0-3.26-.08-9.21-.24-17.88v-10.71l-.16-22.37c-.11-9.98-.45-15.86-1.03-17.65-.32-.95-.97-1.79-1.97-2.52-2-1.42-4.61-2.31-7.84-2.67-3.23-.37-5.32-.69-6.26-.95Z"/>
    <path class="st0" d="M1782.52,184.19c.42,3.47.63,5.46.63,5.98l-.32,7.02c-.11,2.99-.24,4.91-.4,5.75-.47.21-.87.32-1.18.32l-.71-.16c-1.68-7.35-4.53-12.71-8.55-16.07-4.02-3.36-8.92-5.04-14.69-5.04s-10.9,1.68-14.73,5.04c-3.84,3.36-5.75,7.28-5.75,11.74,0,3.41,1.34,6.54,4.02,9.37,2.68,2.84,9.53,7.08,20.56,12.73,8.4,4.34,14.42,7.9,18.04,10.66,3.63,2.76,6.35,5.95,8.19,9.58,1.84,3.63,2.76,7.68,2.76,12.14,0,5.63-1.46,10.91-4.37,15.85-2.91,4.94-6.84,8.66-11.78,11.16-4.94,2.49-11.48,3.74-19.62,3.74-7.09,0-13.89-1.13-20.41-3.39-3.84-1.37-6.17-2.47-7.01-3.31-.84-.84-1.26-1.73-1.26-2.68,0-.58.05-1.31.16-2.2.74-6.2,1.13-11.29,1.18-15.28.11-2.47.29-3.92.55-4.34.21-.37.6-.55,1.18-.55.47,0,.85.17,1.14.51.29.34.48.98.59,1.93.58,6.46,3.57,12.24,8.98,17.33,5.36,5.09,11.43,7.64,18.2,7.64,4.15,0,7.97-.87,11.46-2.6,3.49-1.73,6.22-4.24,8.19-7.52,1.97-3.28,2.96-6.47,2.96-9.57,0-4.26-1.5-8.14-4.49-11.66-2.99-3.52-9.01-7.63-18.04-12.33-9.03-4.7-14.92-8.13-17.65-10.28-4.41-3.52-7.72-7.25-9.93-11.18-1.63-3.05-2.44-6.59-2.44-10.64,0-7.3,2.89-13.48,8.67-18.56,5.77-5.07,13.52-7.6,23.24-7.6,5.36,0,9.98.6,13.87,1.81,2.83.94,5.75,2.49,8.74,4.65Z"/>
  </g>
  <g>
    <path class="st0" d="M564.68,438.34c2.62-.68,6.33-1.34,11.12-1.97,4.78-.63,7.6-.94,8.45-.94,3.31-.07,5.51-.55,6.61-1.44.51-1.83.76-3.36.76-4.57l-.26-14.65.76-14.88v-9.5l.13-11.21-.25-11.9.51-25.52.13-11.56v-1.6c-.59-8.01-1.16-12.42-1.71-13.21-.56-.8-2.99-1.81-7.31-3.04-.42-.15-2.03-.72-4.83-1.71-2.12-.77-4.03-1.3-5.72-1.6-2.97-.69-5.04-1.48-6.23-2.4-.17-1.98-.25-3.5-.25-4.57,0-.61.04-1.52.13-2.75.76-.38,1.57-.57,2.42-.57,2.03,0,9.4.31,22.11.92l18.17-.11,13.47.23c5.84,0,13.34-.32,22.49-.95,2.71-.21,4.28-.31,4.7-.31,1.27,0,2.16.3,2.67.9.67.83,1.01,2.34,1.01,4.52,0,1.73-.47,3.05-1.4,3.95-.51.54-2.37.99-5.59,1.38l-15.76,3.32c-.42.15-1.14.46-2.16.91-.34.54-.59.99-.76,1.38l-.13,3.21-.38,7.21v3.32c0,.38-.09,2.48-.29,6.3-.06.99-.09,1.98-.09,2.97,0,1.22.08,3.28.25,6.18.25,4.58.38,8.58.38,12.02,0,3.97-.13,8.5-.38,13.61-.09,1.91-.13,4.39-.13,7.44l-.51,54.25c0,2.29.42,3.78,1.27,4.47l12.07.44,7.5-.11,8.01.11c13.64,0,24.35-1.4,32.15-4.21,5.85-2.12,9.66-4.25,11.44-6.38,2.88-2.28,5.23-4.75,7.05-7.41,1.82-2.65,3.88-7.06,6.16-13.21h4.07c2.03,0,4.32.15,6.86.45v3.2c0,5.47-.76,15.05-2.29,28.73-.59,5.48-1.19,8.82-1.78,10.04-1.95.31-3.18.46-3.69.46h-4.7l-6.61.11c-.76,0-5.8-.31-15.12-.92-1.7-.07-9.79-.34-24.28-.8-14.48-.45-28.68-.69-42.57-.69l-25.92.69c-10,.23-19.36.65-28.08,1.26h-1.91c-.51,0-1.31-.04-2.41-.12-.17-.84-.25-1.56-.25-2.17,0-3.2.3-5.53.89-6.98Z"/>
    <path class="st0" d="M749.46,447.82v-8.23c1.68-.45,4.46-1.1,8.34-1.94,5.47-1.22,9.56-2.48,12.25-3.78,1.52-2.36,2.29-5.64,2.29-9.83l-.13-13.49.25-26.07-.13-6.17c.68-15.09,1.02-22.87,1.02-23.32l-.25-15.2.38-6.17-.63-13.04-.25-4.91c-.09-.77-.38-1.98-.89-3.66-3.47-1.45-9.11-2.36-16.9-2.74-1.86-.08-3.35-.19-4.45-.34l-.25-10.06,36.33,1.38c4.49.15,7.28.23,8.38.23,4.99,0,13-.3,24.01-.91,6.18-.38,10.08-.61,11.69-.69.1,1.45.15,2.67.15,3.66,0,1.3-.11,2.97-.31,5.03-3.38,1.07-7.25,2.07-11.6,3.03-4.35.95-7.93,1.93-10.72,2.91-.5,1.98-.76,4.84-.76,8.58,0,3.27.12,5.94.38,8-.25,12.88-.38,22.79-.38,29.73l.13,30.18-.63,15.32.51,22.87-.38,4.34c0,.61.25,1.48.76,2.63,5.14.99,9.81,1.68,14.03,2.06.76.08,3.33.39,7.71.92.34,2.29.51,4.19.51,5.72,0,.84-.04,2.14-.13,3.89-1.1,0-1.95.04-2.54.11-2.71.16-4.27.23-4.69.23-.59,0-1.69-.11-3.3-.34-1.18-.15-6.81-.68-16.87-1.6l-22.46-.23c-4.48,0-11,.38-19.54,1.14-5.58.45-9.22.72-10.91.8Z"/>
    <path class="st0" d="M862.37,448.75l.25-9.15c2.03-.45,4.49-.87,7.37-1.26,5.51-.68,10-1.67,13.47-2.97,1.19-1.75,1.95-3.43,2.29-5.03.68-4.27,1.02-10.56,1.02-18.87l-.25-48.59c0-5.03-.3-18.18-.89-39.45-.17-5.72-.59-9.26-1.27-10.63-.25-.46-.68-.84-1.27-1.14-1.36-.84-3.9-1.33-7.62-1.48-1.61-.08-5.76-.5-12.45-1.26l-.38-8.12,28.46-.57,41.55-1.26,4.96-.12c1.02-.08,2.03-.11,3.05-.11.85,0,3.1.04,6.74.11h8.13c6.44-.08,13.42.8,20.97,2.63,2.62.61,6.1,1.88,10.42,3.83,4.32,1.94,8.07,4.42,11.24,7.43,3.18,3.02,5.53,6.39,7.05,10.12,1.53,3.74,2.29,7.7,2.29,11.89,0,4.65-1.14,8.82-3.43,12.52-2.28,3.7-5.76,7.11-10.42,10.23-2.37,1.53-7.84,4.04-16.39,7.55,12.79,2.59,22.53,7.33,29.23,14.24,6.69,6.9,10.04,14.57,10.04,23.04,0,5.03-1.06,10.29-3.18,15.78-1.52,4.11-4.11,7.92-7.75,11.43-4.83,4.65-9.93,8.16-15.31,10.52-5.38,2.36-12.82,4.31-22.3,5.83-4.75.76-11.95,1.14-21.61,1.14l-21.6-.46c-9.15,0-20.04.39-32.66,1.14-3.56.16-13.47.5-29.74,1.03ZM921.59,361.97c3.39.45,7.37.68,11.95.68,12.71,0,22.32-2.12,28.85-6.34,6.52-4.23,9.78-11.53,9.78-21.9,0-7.32-3.1-13.41-9.28-18.29-6.19-4.87-15.5-7.32-27.96-7.32-3.56,0-8.3.42-14.23,1.26,0,1.75.08,4.26.25,7.55.42,6.48.63,15.55.63,27.21l-.13,9.6c0,1.68.04,4.19.13,7.55ZM923.12,434.8c5.5,2.06,10.63,3.08,15.37,3.08,9.66,0,17.54-1.32,23.63-3.94,6.1-2.62,10.55-6.3,13.35-11.03,2.79-4.72,4.19-10.63,4.19-17.72s-1.53-13.18-4.58-17.61c-4.24-6.1-9.37-10.19-15.38-12.29-6.02-2.1-15.04-3.15-27.07-3.15-5.34,0-9.02.34-11.05,1.03v14.06l-.13,16.92.38,26.3c.08,1.22.51,2.67,1.27,4.34Z"/>
    <path class="st0" d="M1035.84,299.77c4.83.22,9.03.57,12.58,1.03,6.69.84,14.44,1.26,23.26,1.26,3.05,0,10.88-.23,23.51-.69,18.89-.69,35.96-1.03,51.21-1.03l23-.23c5.16,0,12.79.57,22.88,1.72,1.52,1.52,2.29,3.58,2.29,6.17v23.55l.25,4.69c0,.45-.05,1.14-.13,2.06l-5.21.23c-.68,0-2.12-.08-4.32-.23-.76-1.52-1.78-3.77-3.05-6.75l-5.08-8.12c-1.95-3.43-4.66-6.94-8.13-10.52-2.12-.53-4.82-.84-8.13-.91-.85-.08-3.43-.26-7.75-.57-7.88-.61-16.36-.92-25.42-.92-10.33,0-19.57.16-27.7.46-.26,1.91-.38,9.41-.38,22.53l.13,19.2v14.4c2.12.23,3.95.34,5.48.34,15.2,0,26.02-.26,32.47-.8,6.45-.53,10.44-1.27,11.97-2.23,1.53-.95,2.89-2.61,4.08-4.97.76-1.67,2.25-7.28,4.45-16.81l1.65-.11,7.37.11c.34,6.78.51,11.93.51,15.44,0,8-.07,13.15-.19,15.44-.13,2.29-.19,4.08-.19,5.37,0,2.06.13,5.36.38,9.89.25,4.54.38,7.92.38,10.12v2.52h-9.03c-.34-1.22-.98-3.73-1.91-7.55-1.7-7.09-3.23-11.51-4.58-13.26-1.02-1.37-2.72-2.4-5.09-3.08-1.7-.53-7.98-.8-18.85-.8-12.82,0-22.46.31-28.91.92v3.89c0,9.07.17,16.62.51,22.64l-.26,24.7c0,2.9,1.14,4.88,3.43,5.95,3.47,1.6,14.11,2.4,31.9,2.4,11.77,0,21.77-.8,29.99-2.4,5.67-1.14,10.67-3.7,14.99-7.66,5.76-5.1,10.55-12.27,14.36-21.5,2.62-.22,4.78-.34,6.48-.34.93,0,2.33.04,4.19.12-.25,1.91-.45,3.5-.62,4.8l-.75,3.43-4.63,21.61-2.25,13.03c-5.51.23-9.88.34-13.1.34-4.75,0-17.42-.38-38.03-1.14-14.5-.53-31.96-.8-52.4-.8-10.17,0-22.68.39-37.52,1.14h-5.34l-15.39.46v-7.89c1.61-.38,4.83-.8,9.66-1.26,8.81-.91,14.91-2.13,18.3-3.66.93-2.21,1.4-4.99,1.4-8.34,0-1.3-.04-3.5-.13-6.63l.13-3.54-.38-43.1.13-12.92-.64-18.3.13-12.92-1.14-14.18c0-.38-.08-1.14-.25-2.28-.85-.84-2.12-1.37-3.82-1.6-.93-.15-2.2-.38-3.81-.69-4.83-.91-9.49-1.45-13.98-1.6-1.61-.08-3.47-.23-5.59-.45l.64-9.14Z"/>
    <path class="st0" d="M1229.23,440.74c2.2-1.07,5.47-1.85,9.79-2.34,4.32-.49,8.21-1.31,11.69-2.46.43-1.53.68-2.63.77-3.31.17-1.07.26-4.73.26-10.98l-.13-25.5.51-13.72-.26-10.63.26-6.17c.26-8.31.38-16.08.38-23.32,0-15.85-.21-25.99-.64-30.41l-7.49-1.38c-6.86-.38-11.44-.76-13.73-1.14l-.25-6.86.51-1.26c4.24-.61,8.13-.92,11.69-.92,1.95,0,5.89-.04,11.82-.11,6.1.46,9.4.69,9.91.69l6.74-.34,15.88-.69c9.91-.91,20.37-1.37,31.39-1.37,17.37,0,31.18,3.99,41.43,11.94,10.25,7.97,15.38,17.1,15.38,27.38,0,7.7-2.77,14.69-8.3,20.98-5.53,6.29-14.04,11.04-25.52,14.24,1.01,1.6,2.36,3.47,4.05,5.61,3.55,4.57,6.42,8.45,8.61,11.66l20.26,29.61c5.08,7.86,8.41,12.45,9.97,13.78,1.57,1.33,4.81,2.8,9.72,4.4,3.81,1.3,6.73,2.6,8.77,3.89.51,1.29.76,2.43.76,3.43,0,.69-.04,1.56-.13,2.63h-3.43l-2.54.12-6.61-.8h-5.21c-2.71-.38-6.06-.57-10.04-.57l-12.71-.12c-.93,0-3.89.27-8.89.8-2.29.23-4.11.42-5.47.57l-4.32-7.55c-3.56-5.71-6.06-9.98-7.5-12.8-3.73-7.39-10.12-19.17-19.19-35.33-4.24-7.47-7.2-11.7-8.9-12.69-2.54-1.6-6.91-2.4-13.09-2.4-1.69,0-4.57.08-8.64.23-.26,2.21-.38,4.84-.38,7.89l.63,25.38-.76,21.49c2.37,1.3,5.46,2.29,9.28,2.98,6.61,1.22,12.28,2.67,17.03,4.34,0,3.74-.17,6.56-.51,8.46-1.61-.08-2.62-.11-3.05-.11l-5.21.23c-18.22-1.45-29.02-2.17-32.41-2.17-2.2,0-3.77.04-4.7.11l-17.54,1.03c-5.34.54-10.21.8-14.61.8h-5.46c-.17-1.9-.25-3.12-.25-3.66,0-.84.13-2.02.38-3.55ZM1286.42,366.77c4.06.16,7.03.23,8.9.23,14.4,0,24.61-2.33,30.62-6.98,6.01-4.65,9.03-10.86,9.03-18.64,0-4.8-.74-9.32-2.22-13.55-1.48-4.23-3.32-7.38-5.51-9.43-3.12-2.97-7.22-5.22-12.29-6.75-3.72-1.14-9.67-1.72-17.87-1.72-3.89,0-7.23.19-10.01.57l-.25,2.17.25,15.44-.38,9.37.13,12.46c-.17,3.5-.3,8.04-.38,13.61v3.2Z"/>
    <path class="st0" d="M1422.41,293.37h7.88c.59.85,1.02,1.46,1.27,1.85,2.37,3.71,4.19,6.14,5.46,7.3,1.1.23,6.9.34,17.41.34,6.52,0,12.33-.03,17.41-.08l2.54-.26,15.38-.12,28.72.12h39.27l7.49-.93c1.1-.69,2.29-2.54,3.56-5.56.34-.69.8-1.66,1.4-2.89l5.59-.12c.85,0,2.12.04,3.81.12.08,5.26.13,13.18.13,23.78l.13,10.17-.13,5.83c0,1.98-.17,3.69-.51,5.14-3.47.99-6.52,1.6-9.15,1.83-2.21-2.97-4.61-7.28-7.2-12.92-2.59-5.64-4.23-8.76-4.9-9.37-1.02-.99-2.21-1.64-3.57-1.94-2.04-.38-11.04-.57-27.01-.57-2.38,0-5.35.16-8.92.45-.42,2.97-.64,5.41-.64,7.32l.13,15.33v33.61l.38,36.25-.13,14.86c0,5.26.51,9.22,1.53,11.89,1.36.53,3.87,1.03,7.54,1.48.68.08,3.83.69,9.45,1.83,2.55.53,4.81,1.14,6.77,1.83.43,2.75.64,4.42.64,5.03,0,.69-.13,1.68-.39,2.97-1.86.08-3.39.11-4.58.11-8.73,0-16.14-.29-22.24-.86-6.1-.57-17.15-.86-33.17-.86-2.54,0-10,.46-22.36,1.37-4.83.31-7.97.46-9.4.46-.08-1.14-.17-2.02-.25-2.63l-.13-2.63v-.91c1.86-2.21,5.38-3.85,10.55-4.92,8.81-1.91,14.91-3.62,18.3-5.15.85-1.45,1.35-3.36,1.52-5.72.6-9.14.89-23.7.89-43.67l-.64-43.22c0-11.89-.25-19.09-.76-21.61-.17-.69-.47-1.2-.89-1.54-.43-.34-1.02-.55-1.78-.63-2.62-.3-11.18-.45-25.67-.45-7.97,0-13.3.69-16.02,2.06-3.64,1.91-9.11,7.09-16.39,15.55-2.12,2.44-3.68,3.66-4.7,3.66-3.9-1.83-6.4-3.31-7.5-4.46,2.62-4.95,6.27-14.86,10.93-29.73,1.36-4.34,2.33-7.28,2.93-8.8Z"/>
    <path class="st0" d="M1603.73,300.57c2.29-.61,7.58-.91,15.88-.91l1.27.23c2.12.31,3.6.46,4.45.46l1.27-.11c1.27.15,4.74.42,10.42.8,10.51.69,18.85,1.03,25.03,1.03,6.78,0,13.42-.42,19.95-1.26.93-.15,1.61-.23,2.03-.23l1.02.12c.42.99.64,1.75.64,2.28l-.13,5.95c-1.95.69-4.28,1.22-6.99,1.6l-5.72.92c-2.12.38-4.95.8-8.51,1.26l-.76.46-.25,1.48c2.8,5.41,8.73,13.83,17.79,25.26,2.37,3.66,4.74,7.09,7.12,10.29.68.85,3.09,4.39,7.24,10.64.43.68.89,1.37,1.4,2.06.76,1.07,1.52,2.09,2.28,3.08,1.44,1.91,2.37,3.17,2.8,3.77,1.7,2.44,3.13,4.31,4.32,5.6l13.21-16.69c4.32-5.03,9.96-12.34,16.9-21.95l.51-.57,10.8-17.26c1.69-2.21,2.54-3.85,2.54-4.92,0-.38-.12-1.03-.38-1.94-1.27-.76-2.33-1.22-3.18-1.37-.34-.15-2.12-.3-5.34-.46-1.78-.31-3.47-.57-5.08-.8-1.61-.23-2.92-.45-3.94-.68-.18-.99-.43-3.81-.77-8.46l26.05,1.26c.76.08,1.82.23,3.18.46h6.1l2.16-.11c2.71-.38,6.22-.69,10.54-.92,1.27-.08,2.5-.19,3.69-.34l-.13,8.58-1.65.46c-7.11,1.07-11.99,2.48-14.61,4.23-3.81,2.6-8.94,8.84-15.38,18.75l-16.52,22.29c-9.91,12.13-16.31,20.39-19.19,24.81-.77,1.07-1.4,2.4-1.91,4v3.54l-.13,9.95v2.74c-.25,1.98-.38,4.04-.38,6.17l.51,29.27c.34.61.8,1.03,1.4,1.25,1.19.31,3.9.69,8.13,1.14,8.13.76,12.66,1.41,13.6,1.95.67.38,1.01,1.14,1.01,2.29,0,.68-.08,1.6-.25,2.74,0,.69-.05,1.75-.13,3.2l-14.61-.23-13.6-1.03-9.4-.57-14.11.45h-10.55c-1.19-.07-3.09.08-5.72.46-4.24.61-7.41.91-9.53.91l-8.77-.12c-.08-1.6-.13-2.82-.13-3.65s.04-2.1.13-3.77l23.38-4.35c1.02-.3,1.99-.68,2.92-1.14.08-3.5.13-5.67.13-6.51,0-11.66-.08-19.61-.25-23.84-.17-4.23-.25-6.69-.25-7.37v-2.63c0-4.8-2.8-10.33-8.39-16.58-2.37-2.67-3.86-4.42-4.45-5.26l-24.91-34.07-11.69-16.92c-.42-.61-3.05-3.73-7.88-9.37-1.53-1.22-3.01-2.06-4.45-2.51-.85-.31-4.7-1.11-11.57-2.4-.42-.69-.63-1.3-.63-1.83,0-.45.04-1.04.12-1.77.08-.72.17-1.81.26-3.26Z"/>
  </g>
  <g>
    <path class="st0" d="M1771.75,429.55v19.19h-6.13v-19.19h-7.2v-4.96h20.6v4.96h-7.27Z"/>
    <path class="st0" d="M1804.79,448.75l-.03-15.68-5.79,13.26h-4l-5.79-13.26v15.68h-5.48v-24.15h6.72l6.55,14.37,6.55-14.37h6.68v24.15h-5.41Z"/>
  </g>
  <path class="st0" d="M503.51,191.4c.69.8,1.37,1.63,2.04,2.49,3.67,4.64,6.49,9.73,8.38,15.13.26.74.5,1.49.73,2.24l.09-7.11v-9.51c-3.86-.11-8-.7-11.19-3.19l-.05-.04Z"/>
  <path class="st0" d="M550.98,208.36c1.07-1.74,2.26-4.19,1.79-6.03-.19-.76-.65-1.36-1.37-1.78-1.29-.83-2.72-1.39-4.19-1.84l.08,13.05c1.32-1,2.56-2.12,3.68-3.41Z"/>
  <path class="st0" d="M360.68,394.77c2.36-6.88,5.32-12.99,8.8-18.27l-4.39.16-1.52,5.17-5.31,19.09c.18-.04.37-.07.55-.11.55-1.97,1.17-3.98,1.87-6.04Z"/>
  <path class="st0" d="M451.23,270.07c3.54,0,7.32-.52,11.24-1.53,3.45-.89,6.4-2.32,9.01-4.36.63-.49,1.22-.99,1.78-1.51-.4-.74-.82-1.44-1.25-2.09,1.32-.31,2.67-.6,3.97-.88.58-.76,1.11-1.54,1.57-2.35,1.57-2.75,2.89-6.54,3.93-11.26,1.1-4.99,1.66-10.04,1.66-15.02,0-6.12-.91-12.27-2.72-18.29-1.22-3.96-3.15-7.4-5.89-10.52-2.73-3.1-5.95-5.44-9.83-7.14-3.96-1.74-8.08-2.58-12.6-2.58-3.64,0-7.26.61-10.76,1.82-3.41,1.18-6.15,2.61-8.14,4.27-1.98,1.65-3.96,4.2-5.86,7.6-2.06,3.68-3.66,7.82-4.75,12.32-1.12,4.61-1.69,8.64-1.69,11.98,0,3.57.57,7.77,1.7,12.5,1.09,4.58,2.56,8.52,4.38,11.74,1.77,3.14,3.98,5.96,6.56,8.37,2.43,2.28,5.08,3.97,8.1,5.18,2.99,1.19,6.13,1.77,9.61,1.77Z"/>
  <path class="st0" d="M325.5,170.56l9.13-.15h.08s.08,0,.08,0c1.88,0,3.73.16,5.49.46l3.48.61,2.33,2.66c1.95,2.23,3.03,5.05,3.03,7.92v7.17l-5.69,2.72-1.98.95-1.55.74c2.24,3.26,4.61,7.01,7.06,11.17v.02s.03.02.03.02c.95,1.63,1.97,3.23,3.04,4.76l.07.1.07.1,3.94,5.96,6.05-8.68,9.71-14.56c-.37-.06-.82-.13-1.34-.22l-4.62-.77-2.36-4.05c-1.27-2.18-1.91-4.4-1.91-6.62,0-.81.06-1.65.19-2.49l1.24-8.38,8.47-.16,4.1-.08h.22s.22,0,.22,0l14.58.39,11.67-.23h.1s.1,0,.1,0c.41,0,1.09.02,3.58.08l10.6.29-.86,10.02c4.61-2.86,10.18-5.36,16.93-7.6h.03s.03-.02.03-.02c6.41-2.08,14.07-3.08,23.4-3.08,6.4,0,12.75.87,18.88,2.58,6.14,1.71,11.82,4.15,16.9,7.24,3.64,2.22,7.24,5.23,10.77,8.94l-.55-1.66c-.5-1.51-.75-2.96-.75-4.41,0-3.41,1.47-6.6,4.04-8.76l.26-.22.28-.2c2.29-1.67,5.06-2.55,8.02-2.55h1.97l5.2-.08h.08s.08,0,.08,0h12.39l20.66-.23,7.58-.09,2.13,7.27c.54,1.85.8,3.4.8,4.86,0,1.16-.17,2.38-.53,3.84l-1.42,5.69-5.66,1.53c-2.23.61-4.17.9-5.93.9-.54,0-1.17-.03-1.95-.09l-.21,2.43c9.4-1.53,18.52-4.03,27.24-7.49l-1.09-3.06c-.57-1.6-.92-3.28-1.03-4.98l-.35-5.28c-1.1.03-2.19.06-3.26.09-1.21.04-2.45.08-3.69.11,2.26-.58,4.56-1.09,6.86-1.57l-.2-2.99,9.6-.99c2.38-.24,4.76-.37,7.09-.37,1.21,0,2.45.02,3.7.07,2.12-.57,4.22-1.19,6.29-1.93,8.85-3.48,16.62-7.27,23.77-11.56,1.72-1.07,2.6-2.93,3.45-4.73.17-.35.33-.7.5-1.03l.05-.09-.19-.09c-1.67-.79-3.39-1.61-5.15-2.35,4.29-1.6,8.71-3.05,12.99-4.46,9.53-3.14,19.39-6.39,28.35-11.36,3.76-1.81,5.58-5.91,7-9.61l.04-.11-.12-.02c-7.54-1.59-14.87.24-21.95,2-5,1.25-10.18,2.54-15.39,2.62-2.02.19-4.08.45-6.07.7-6.24.79-12.69,1.6-19.02.51,3.52-1.7,7.22-3.08,10.8-4.41,4.47-1.66,9.1-3.38,13.39-5.75l.42-.24c16.72-9.42,34-19.15,46.24-34.41.84-1.33,1.36-2.86,1.86-4.35.16-.47.32-.93.48-1.4l.05-.13h-.13c-5.27-.49-10.21,1.57-14.98,3.58-1.18.5-2.4,1.01-3.6,1.47-14.47,5.99-27.76,10.65-40.63,14.25-1.69.48-3.4.98-5.05,1.47-6.66,1.97-13.55,4-20.57,4.8,5.22-3.63,10.74-6.98,16.08-10.23,7.44-4.52,15.12-9.19,22.1-14.67,1.74-1.31,3.53-2.64,5.26-3.93,12.51-9.29,25.45-18.89,33.26-32.73l.04-.07-.05-.06c-1.23-1.31-2.39-2.46-3.55-3.51l-.05-.05-.06.03c-4.69,2.28-8.94,5.4-13.05,8.41-3.97,2.91-8.07,5.92-12.55,8.16-3.21,1.54-6.45,3.18-9.57,4.77-5.49,2.79-11.16,5.67-16.94,8.12-8.58,4.88-18.15,7.44-26.42,9.28,3.7-3.61,7.8-6.88,11.77-10.04,4.25-3.38,8.65-6.88,12.56-10.82,2.72-2.79,5.65-5.47,8.48-8.06,4.42-4.04,8.98-8.21,12.83-12.89,6.48-7.32,14.55-16.44,13.97-27.73v-.09s-.09,0-.09,0c-5.1-.62-8.7,3-12.19,6.49-.89.89-1.72,1.73-2.58,2.49-5.06,5.38-11.24,9.66-17.22,13.8-2.02,1.4-4.11,2.85-6.13,4.32-1.61,1.12-3.25,2.27-4.84,3.38-9.7,6.81-19.72,13.85-30.87,18.52,4.13-5.31,8.91-10.1,13.54-14.74,2.23-2.24,4.54-4.55,6.74-6.89,1.91-1.92,3.95-3.84,5.93-5.71,8-7.55,16.28-15.35,19.77-26.08l.02-.07-.07-.04c-1.52-.99-3.03-1.9-4.71-2.89l-.05-.03-.05.03c-6.52,4-12.16,9.24-17.61,14.31-3.63,3.37-7.39,6.86-11.36,9.94-10.17,8.12-21.05,15.57-31.57,22.78-6.04,4.14-12.29,8.42-18.34,12.78-6.4,4.79-13.57,8.6-20.51,12.28-3.86,2.05-7.85,4.16-11.68,6.44,2.63-2.81,5.58-5.4,8.44-7.91,3.58-3.14,7.28-6.38,10.36-10.08l.63-.75c6.79-8.02,13.82-16.31,19.34-25.44,1.88-3.13,2.33-6.66,2.66-10.3v-.13s-.12.02-.12.02c-3.97.58-7.5,2.49-9.92,5.37-.97,1.09-1.93,2.19-2.9,3.28-8.42,9.55-17.12,19.42-27.29,27.53-6.28,6.06-13.27,11.43-20.02,16.62-4.07,3.13-8.29,6.37-12.31,9.74-5.33,4.65-11.21,8.78-16.9,12.78-3.32,2.33-6.75,4.74-10.04,7.23-11.69,9.02-26.93,15.24-45.3,18.47-7.23,1.31-13.46,5.23-19.49,9.03-2.38,1.5-4.85,3.06-7.32,4.42-9.23,3.8-18.69,8.4-28.92,14.08-1.45.92-2.9,1.9-4.3,2.84-3.1,2.1-6.31,4.27-9.76,5.95-3.18,1.57-6.37,3.32-9.45,5.01-2.5,1.37-5.02,2.75-7.58,4.06,4,.12,7.54.18,10.55.18Z"/>
  <path class="st0" d="M374.63,280.68c.02-.17.03-.33.03-.49h0c0,.15-.01.32-.03.49Z"/>
  <path class="st0" d="M498.24,509.3c-1.09-.86-2.22-1.75-3.31-2.63-16.59-12.81-36.47-20.75-55.49-27.42-11.69-4.04-24.94-8.62-38.38-11.58-8.41-1.83-16.71-4.48-24.74-7.04l-.31-.1c-6.25-1.83-12.71-3.38-18.95-4.87-4.63-1.11-9.41-2.25-14.08-3.51-.06-.02-.12-.04-.19-.06l-.12.39-.06.2-.07.19c-3.7,10.35-7.48,19.07-11.22,25.94-3.96,7.27-8.96,13.9-14.84,19.7l-.04.04-.04.04c-4.72,4.54-9.86,7.97-15.27,10.18-4.02,1.68-8.78,2.49-14.56,2.49-8.63,0-14.65-1.61-18.95-5.09-5.97-4.85-7.22-10.62-7.22-14.61,0-6.03,2.86-11.17,7.85-14.11l.48-.28.51-.23c2.8-1.26,5.14-1.84,7.34-1.84,3.56,0,10.27,1.31,15.22,10.08l.03.05.03.05c.15.27.29.51.42.72.77-.36,1.95-1.02,3.59-2.24,2.79-3.14,5.55-7.76,8.2-13.76,3.11-7.02,5.89-14.68,8.28-22.73l2.43-8.35c-3.35-1.94-6.71-4.02-9.16-7.01.78-.33,1.62-.62,2.43-.89,2.03-.68,4.12-1.39,5.66-2.94l.02-.03c.73-1.44.41-3.01.11-4.53-.09-.44-.18-.9-.24-1.33.79.12,1.59.27,2.37.41,1.12.2,2.26.4,3.4.55l3.62-12.44c.61-2.11,1.23-4.45,1.84-6.95l.04-.17.05-.17,7.16-25.61.03-.09.03-.09c.07-.24.14-.47.21-.7-1.5,0-3.28.01-5.39.01h-11.13l1.18-11.06c.23-2.16.46-4.04.69-5.73l1.08-7.85,7.89-.74c1.71-.16,3.53-.28,5.41-.36h.03s.03,0,.03,0l8.65-.3c2.75-8.47,5.81-16.58,9.11-24.19l.03-.08.04-.08c2.89-6.36,7.02-12.78,12.27-19.08l.03-.03.03-.03c4.42-5.22,9.75-9.48,15.84-12.67,3.85-2.08,8.53-3.13,13.92-3.13,7.12,0,13.11,2.1,17.81,6.26,6.28,5.56,7.6,11.36,7.6,15.25,0,4.24-1.51,8.13-4.36,11.26-3.04,3.32-7.05,5.15-11.28,5.15s-8.17-1.44-11.43-4.15c-1.97-1.63-3.57-3.7-4.78-6.16-.36.4-.76.85-1.18,1.36-.96,1.24-2.55,3.7-4.74,8.45-1.92,4.17-4.08,10.36-6.43,18.41-.33,1.12-.62,2.15-.9,3.1h.04s.11,0,.11,0h.11c.56,0,1.46.03,4.18.25l8.23.67.66,6.02c2.25-1.94,4.63-3.73,7.14-5.35,6.51-4.19,13.33-6.4,20.31-6.65-.03-.16-.05-.32-.08-.48-.13-.82-.27-1.67-.38-2.49,7.74-.84,15.56-2.48,20.45-8.68,2.76-4.71,4.64-9.94,5.6-15.56.66-.2,1.33-.39,2.01-.59,6.08-1.77,12.97-3.77,15.48-10.12,2.79-4.53,2.39-9.71,1.74-14.79-1.98.15-3.99.22-6.03.22-7.92,0-15.16-.96-21.53-2.86-6.33-1.89-11.78-4.28-16.21-7.11-4.54-2.91-8.96-6.94-13.51-12.33-4.61-5.45-8.16-11.57-10.55-18.17-2.38-6.58-3.59-13.8-3.59-21.45,0-6.34.8-12.14,2.37-17.25,1.27-4.12,3.24-8.5,5.85-13.05-3.95,4.52-7.5,8.89-10.6,13.04-5.23,7.01-9.69,13.44-13.23,19.08-1.42,2.28-2.53,3.92-3.48,5.15-.43.56-.7.95-.88,1.21-.15.88-.35,2.68-.35,5.93,0,12.68.18,19.48.36,23.12,2.05.27,4.96.62,9.07,1.03l9.01.9v9.98c0,1.98-.44,3.98-1.34,6.11l-2.7,6.41-6.95-.3-19.72-.85-13.02.69h-.26s-.26.01-.26.01h-11.05c-1.22,0-2.53-.03-3.9-.09l-6.65-.29-2.3-6.24c-.64-1.73-.93-3.23-.93-4.72,0-1.37.25-2.77.76-4.29l.88-2.62,2.1-1.8c1.78-1.53,3.9-2.51,6.12-2.84l8.87-1.37c.01-3.03.03-8.3.03-17.5,0-3.83-.1-5.69-.17-6.5-.28-.51-.86-1.52-2.01-3.23l-.02-.03-.02-.03-10.27-15.6-17.51-25.52c-2.32-3.37-3.85-5.01-4.64-5.74-.58-.11-1.56-.26-3.14-.41-.73-.03-1.56-.1-2.55-.22l-8.17-1.02-.57-8.21-.02-.26c-.53.36-1.07.73-1.6,1.09-1.58,1.08-3.21,2.2-4.82,3.27-2.45,1.43-3.39,4.06-4.29,6.6-.91,2.54-1.84,5.16-4.28,6.56-2.76,1.3-5.7,2.23-8.55,3.13-2.13.68-4.34,1.37-6.45,2.22-2.65.85-5.31,1.85-7.88,2.81-5.92,2.22-12.04,4.52-18.47,5.19,2.48-1.84,5.3-3.49,8.04-5.1,7.44-4.36,15.13-8.88,17.54-17.72l.02-.07-.06-.04c-.84-.61-1.63-1.31-2.39-1.99l-.08-.07-.06.02c-13.95,4.88-29.33,9.2-46.98,13.22l.46-.35c7.76-5.93,16.56-12.65,16.99-23.35v-.06s-.2-.11-.2-.11c-1.03-.58-2.09-1.19-3.15-1.86l-.06-.04-.06.04c-2.68,1.8-5.31,3.74-7.85,5.62-2.57,1.9-5.22,3.86-7.93,5.68-5.78,3.88-12.53,5.82-19.05,7.69-2.19.63-4.45,1.28-6.64,1.99-6.4,2.07-12.96,3.5-19.3,4.89-2.19.47-4.24,1.43-6.22,2.36-2.68,1.25-5.44,2.55-8.54,2.6-1.29.05-2.62-.01-3.91-.07-3.2-.15-6.51-.31-9.58,1.21-.47.19-.94.37-1.41.55-6.36,2.48-13.57,5.29-16.99,11.73-2.95,4.45-5.16,9.75-7.17,17.19-1.27,7.27,1.65,14.38,4.67,20.38,3.04,6.94,6.19,13.59,11.33,18.63,5.27,5.24,10.98,10.79,17.03,15.86,9.52,6.65,17.04,17.22,22.37,31.39-2.79.54-5.68.7-8.47.86-3.21.18-6.52.37-9.72,1.12-10.33,2.56-18.36,5.29-25.28,8.6l-.55.35c-11,7.07-22.38,14.38-35.21,17.72-3.4,1-6.97,1.84-10.41,2.65-9.37,2.2-19.05,4.48-26.98,10.28-6.73,4.38-11.11,11.08-15.34,17.56-1.91,2.93-3.89,5.96-6.04,8.71-1.78,1.51-3.66,2.97-5.49,4.38-3.96,3.06-8.05,6.23-11.32,10.15-.4.54-.84,1.06-1.3,1.62-2.03,2.45-4.13,4.98-3.54,8.4-1.21,10.81,9.08,17.96,18.26,20.79l.17.05-.04-.17c-.86-3.88-2.21-7.78-3.52-11.44,7.22-6.31,17.51-9.34,28.99-8.54-.79,1.01-1.61,2.03-2.4,3.02-3.39,4.22-6.89,8.58-9.27,13.62l-.08.18.2-.03c2.73-.47,5.52-1.46,9.04-3.21-1.41,4.54-3.13,10.47-4.04,16.54v.05s.03.04.03.04c.37.37.77.75,1.16,1.12.35.33.7.67,1.04,1l.06.06.07-.05c4.24-2.96,8.18-6.4,12-9.73,3.28-2.87,6.68-5.83,10.25-8.48,2.04-1.49,3.77-3.4,5.45-5.23,1.15-1.26,2.34-2.57,3.6-3.71,3.63-2.06,7.82-1.86,11.87-1.66,3.34.17,6.8.33,10.01-.73,1.92-.66,3.81-1.47,5.64-2.26,2.34-1.01,4.75-2.06,7.24-2.76,5.12-.59,9.91,1.04,13.15,4.47,5.03,5.08,9.26,11.01,13.36,16.76.83,1.16,1.65,2.31,2.48,3.46,2.43,3.71,6.01,6.54,10.09,7.99,5.36,1.96,10.7,4.23,15.87,6.42l1.6.68c-1.66,1.85-3.49,3.57-5.26,5.23-2.58,2.42-5.24,4.93-7.37,7.85-5.35,7.96-6.58,17.48-7.77,26.69-.4,3.12-.82,6.35-1.39,9.44-1.19,6.59-1.12,13.38-1.05,19.94.06,5.76.13,11.73-.67,17.54-.13,1.02-.65,1.82-1.52,2.3-1.25.7-3.2.69-4.75-.02-3.05-1.1-6.11-2.35-9.08-3.56-5.17-2.11-10.51-4.29-15.98-5.77-2.99-.91-5.57-2.71-8.07-4.44-2.15-1.49-4.38-3.04-6.9-4.05-2.14-.45-4.26.3-6.31,1.02-.86.31-1.68.59-2.5.8-6.16,2.01-8.94,8.42-10.05,12.06l-.08.25.23-.13c.99-.56,1.96-1.19,2.9-1.8,2.1-1.35,4.26-2.76,6.68-3.46,3.1-.92,6.12.44,9.04,1.75.39.18.77.35,1.15.52-1.41.25-2.89.37-4.33.48-3.05.24-6.2.49-8.92,2.02-2.03,1.58-3.27,3.93-4.46,6.2-.45.85-.92,1.74-1.42,2.57-3.83-3.61-8.08-6.88-12.19-10.05-.85-.65-1.7-1.31-2.55-1.97-5.2-3.1-11.95-.42-15.46,3.96-2.93,3.02-2.43,6.99-1.94,10.82.05.39.1.78.14,1.16l.02.16.14-.08c1.29-.77,2.5-1.94,3.67-3.06,2.5-2.4,5.08-4.9,8.7-3.78,1.14,2.72,1.84,5.6,2.52,8.38l.03.1c-1.47-.1-2.97-.14-4.43-.18-3.56-.08-7.24-.17-10.75-1.26-1.21-.29-2.43-.74-3.61-1.17-1.94-.71-3.94-1.45-6.05-1.54-4.43.07-8.21,2.68-10.38,7.13-2.46,5.05-2.1,11.09.89,15.03l.12.16.06-.19c.28-.93.53-1.9.76-2.85.94-3.75,1.91-7.63,5.48-9.93,3.49-.25,5.84,2.17,8.31,4.73,1.99,2.06,4.04,4.18,6.76,4.79h.01s.01,0,.01,0c2.27-.13,4.59-.44,6.83-.75,3.46-.47,7.05-.95,10.6-.78,5.03.41,9.71,2.65,14.24,4.81.33.16.66.32.99.47-4.91,3.59-10.8,5.45-15.92,6.8-2.57.61-5.18.13-7.7-.33-1.06-.19-2.15-.39-3.22-.51h-.06s-.04.04-.04.04c-.39.51-.79,1.02-1.19,1.52-2.06,2.61-4.18,5.3-5.29,8.53-2.11,5.35-1.26,11.78,2.16,16.38l.15.2.06-.37c.91-6.08,1.85-12.36,6.45-16.85,2.03.68,3.96,1.67,5.82,2.62,1.97,1.01,4.01,2.05,6.17,2.73,4.04,1.46,7.07-1.42,9.5-4.44,1.86-2.42,4.55-3.98,7.15-5.5,1.09-.64,2.23-1.3,3.29-2.01.35-.23.7-.47,1.05-.7,2.41-1.63,4.9-3.32,7.82-3.53,3.77-.54,7.68,1.66,9.29,5.22.27,1.96-.17,4-.59,5.97-.66,3.04-1.33,6.19.63,8.99,2.63,5.81,9.46,7.97,14.4,9.08-.08,5.68-1.74,11.34-4.8,16.39l-.14.23.26-.08c.77-.24,1.56-.46,2.32-.68,2.25-.64,4.58-1.3,6.71-2.49,2.36-2,3.74-4.74,5.08-7.38.35-.69.71-1.39,1.07-2.08,4.9-.37,10.85-1.49,13.71-6.77.29.29.59.57.89.86,1.23,1.18,2.51,2.4,3.38,3.93.29,6.14-5.93,10.12-7.88,11.22-3.01-.1-6.01-.54-8.92-.97-1.31-.19-2.67-.4-4.03-.57l-.28-.04.19.21c2.24,2.46,4.78,5.25,8.13,6.28,1.16.21,2.31.3,3.44.3,7.16,0,13.52-3.8,17.9-6.86,2.89-2.19,3.04-6.38,1.97-9.35-.57-2.53-.78-5.11-.93-7.65.03-.02.06-.04.09-.07l.2-.17h-.29s-.01-.01-.02-.01c-.02-.38-.05-.76-.07-1.14-.04-.67-.08-1.34-.12-2.01l.61-.03-.6-.17s-.02,0-.03,0c-.19-2.92-.5-5.87-1.4-8.68-.19-.88-.44-1.8-.68-2.68-.87-3.18-1.77-6.46-.44-9.54.77-1.77,1.29-3.68,1.8-5.52.72-2.62,1.47-5.33,2.92-7.67,3.96-1.88,8.33-3.12,12.56-4.33l.47-.14c.66.66,1.24,1.43,1.85,2.25,1.3,1.73,2.65,3.52,4.81,4.22,5.44,1.94,10.58,5.18,14.72,7.79,7.17,3.35,13.52,8.02,18.79,12.14l.15.12.02-.19c.12-1.22.22-2.49.32-3.72.09-1.11.18-2.26.29-3.4.95-.13,1.84-.31,2.79-.5l.53-.1.78.76c2.27,2.2,4.42,4.27,6.87,6.15l.15.12v-.19c.11-1.53.21-3.04.31-4.56.12-1.82.24-3.65.36-5.49,1.49,1.29,2.97,2.62,4.39,3.9.71.64,1.41,1.27,2.12,1.9l.04.03h.05c.57-.08,1.59-.33,2.05-.49l.07-.02v-.07c.15-3.92.22-7.91.28-11.77.48.33.95.67,1.43,1.01,2.13,1.52,4.32,3.08,6.65,4.33l.16.08v-.18c-.07-2.88-.2-5.82-.34-8.65-.06-1.2-.11-2.41-.16-3.61.44.26.88.52,1.33.79,1.64.98,3.33,1.99,5.02,2.94l.16.09v-.18c-.07-3.38-.5-6.78-.92-10.07-.57-4.56-1.17-9.28-.79-13.93,1.96,1.08,3.98,2.09,5.89,3.03l.15.07v-.17c-.02-7.23,2.15-14.23,4.24-21,.53-1.7,1.07-3.46,1.57-5.19.89-2.5.92-5.2.94-7.82,0-.73.02-1.49.04-2.24,5.27,7.53,8.33,17.26,8.87,28.15v.03s.02.03.02.03c5.98,7.93,17.73,9.68,26.71,7.89,4.59-.23,7.25-3.96,9.6-7.25.27-.38.54-.76.81-1.12,8.56,4,16.35,7.41,24.88,8.76.74-.02,1.58.02,2.46.06,3.52.18,7.51.38,9.26-3.04,1.94-2.83,1-5.99.09-9.05-.37-1.25-.76-2.54-.93-3.78,5.18,1.28,10.21,3.3,15.08,5.25,3.37,1.35,6.86,2.75,10.38,3.89.78.13,1.62.31,2.51.5,4.29.92,9.64,2.06,12.53-1.83l.02-.04c1.18-5.48-1.96-10.32-4.58-14.23,4.8,1.4,9.8,2.42,14.63,3.41,4.09.83,8.31,1.7,12.42,2.79,8.77,2.43,15.86,2.38,21.66-.14l.07-.03v-.08c-.62-3.46-1.14-6.35-1.8-9.29,8.74,2.47,19.58,5.5,30.31,4.26,3.3-.09,6.06-2.22,8.39-4.23,3.85,1.16,7.65,2.69,11.32,4.18,3.7,1.49,7.52,3.04,11.39,4.2h.03c1.86.05,3.77.03,5.61,0,3.5-.05,7.13-.1,10.66.36h.08s.03-.06.03-.06c.21-.53.46-1.07.7-1.59.17-.38.35-.76.51-1.15,3.79,1.21,7.82,1.78,11.98,1.68h.15s-.06-.14-.06-.14c-3.11-7.06-9.19-11.84-15.07-16.46Z"/>
  <g>
    <path class="st0" d="M403.82,180.01c-1.89-.05-2.99-.08-3.31-.08l-11.9.24-14.81-.39-4.1.08c-.05.37-.08.71-.08,1.03,0,.42.18.95.55,1.58.63.11,1.13.19,1.5.24,5.41.53,8.93,1.34,10.56,2.44,1,.68,1.5,1.57,1.5,2.67,0,.48-.05.92-.16,1.34-.21.84-.89,2.15-2.05,3.94l-13.11,19.64-11.37,16.32c-1.37,1.94-2.45,3.42-3.24,4.42l-11.98-18.14c-1.21-1.74-2.37-3.55-3.47-5.44-2.79-4.73-5.41-8.83-7.88-12.3-1.73-2.37-3.13-4.44-4.18-6.23-.58-.84-1-1.47-1.26-1.89-.74-1.05-1.1-1.92-1.1-2.6,0-.63.42-1.24,1.26-1.81,1.11-.79,2.56-1.18,4.36-1.18l2.3.08,4.43-.08h.87l1.98-.95v-.87c0-.47-.18-.92-.55-1.34-1.21-.21-2.47-.32-3.78-.32l-9.22.16c-4.73,0-10.66-.14-17.81-.42-4.62-.14-7.62-.21-8.98-.21h-3.78l.24,3.39c.84.11,1.47.16,1.89.16,3.99.37,6.49.89,7.48,1.56,2.26,1.51,4.91,4.48,7.96,8.92l17.57,25.6,10.32,15.68c1.89,2.83,3.01,4.82,3.35,5.95.34,1.13.51,4.24.51,9.34,0,13.66-.03,20.96-.08,21.9-.16,1.31-.56,2.28-1.19,2.91-.42.42-2.4,1.21-5.93,2.36l-10.21,1.57c-.37.05-.74.24-1.11.55-.16.48-.24.84-.24,1.11s.1.68.32,1.26c1.26.05,2.42.08,3.47.08h11.05l13.49-.71,20.2.87c.37-.87.55-1.62.55-2.23v-.92c-9.51-.95-14.94-1.76-16.31-2.45-.53-.32-.95-1.21-1.26-2.68-.58-2.94-.87-12.6-.87-28.97,0-4.16.29-7.26.87-9.31.26-.84,1.08-2.15,2.44-3.94.73-.94,1.71-2.39,2.91-4.33,3.73-5.93,8.3-12.52,13.71-19.78,5.41-7.25,11.97-14.94,19.7-23.08.63-.47,1.5-.92,2.6-1.34.68-.05,1.18-.1,1.5-.16l1.89-.24c.79-.05,1.36-.13,1.73-.24l.24-2.76Z"/>
    <path class="st0" d="M615.59,180.41l-2.44-.08-12.45.4c-.31,0-2.21-.13-5.67-.4-2.31-.16-4.52-.24-6.62-.24s-4.02.11-6.07.32c.05.79.21,1.55.47,2.28,5.72,1.16,9.61,2.47,11.66,3.94.94.69,1.67,1.71,2.17,3.07.5,1.37.93,5.86,1.3,13.48l1.18,22.63c0,.42-.05,1.85-.16,4.29-.11,2.45-.16,4.09-.16,4.93v2.29c.16,3.94.24,6.04.24,6.31,0,9.25-1.04,16.15-3.11,20.7-2.08,4.55-5.49,8.11-10.24,10.68-4.75,2.57-11.6,3.87-20.52,3.87-3.99,0-8.1-.74-12.33-2.21-4.23-1.47-7.39-3.34-9.49-5.6-2.1-2.26-3.6-5.14-4.49-8.63-.89-3.49-1.37-12.39-1.42-26.69l-.24-39.03.79-8.99c.21-.95.79-1.71,1.73-2.28,1.42-.95,3.34-1.42,5.75-1.42.53,0,1.22.04,2.09.12.87.08,1.48.12,1.85.12.84,0,1.94-.18,3.31-.55.16-.63.24-1.1.24-1.42,0-.47-.13-1.15-.39-2.05l-20.72.24h-12.45l-5.28.08h-2.05c-.84,0-1.55.21-2.13.63-.32.26-.47.63-.47,1.1,0,.37.08.79.24,1.26.94.74,3.15,1.1,6.62,1.1l4.65-.08c1.1,0,1.94.42,2.52,1.26.84,1.21,1.26,3.34,1.26,6.39v11.98l-.24,17.82.24,22.08v5.44c0,7.47.92,13.14,2.76,17.03,1.37,2.94,3.83,5.89,7.41,8.83,3.57,2.94,8.38,5.33,14.42,7.17,3.31,1.05,8.72,1.58,16.23,1.58,4.78,0,9.62-.79,14.54-2.37,4.91-1.58,8.83-3.59,11.78-6.03,2.94-2.44,5.19-5.19,6.74-8.24,1.55-3.05,2.74-7.17,3.58-12.38.58-3.73.87-10.75.87-21.05l-.24-8.2.08-6.46-.55-16.32c-.21-5.47-.32-9.01-.32-10.64,0-3.05.63-5.14,1.89-6.27,1.26-1.13,5.12-2.12,11.58-2.96l.08-2.83Z"/>
    <path class="st0" d="M621.67,185.05l-.08-3.78c8.14,0,14.1-.21,17.88-.63,1.47-.16,2.49-.24,3.07-.24.47,0,1.18.02,2.13.08,2.21,1.84,4.25,3.94,6.14,6.3.42.47.89,1,1.42,1.58l16.62,18.35,2.36,2.83c3.36,3.94,6.42,7.3,9.18,10.09,2.76,2.78,8.13,8.59,16.11,17.41l18.83,20.88c1.84,2.05,4.2,4.6,7.09,7.64l.08-1.26c-.31-7.3-.47-11.16-.47-11.58l.31-4.73-.16-7.41v-3.39c0-2.15-.19-8.79-.55-19.93-.05-1.52-.26-4.4-.63-8.63-.37-4.23-.55-7.94-.55-11.15,0-5.77-.34-9.13-1.02-10.08-.47-.68-2.7-1.39-6.7-2.13-.95-.05-2.42-.21-4.41-.47-2.36-.11-3.76-.24-4.18-.4-.42-.16-.84-.6-1.26-1.34.11-.84.34-1.62.71-2.36,1.42-.42,2.81-.63,4.18-.63,1.47,0,3.3.19,5.47.55,2.18.37,4.14.55,5.87.55,2.42,0,6.17-.16,11.27-.47,2.89-.21,4.89-.32,5.99-.32h1.34l-.16,2.44c-.84.37-2,.59-3.47.67-1.47.08-2.84.3-4.1.67-1.89.58-3.02,1.08-3.39,1.5-1.26,1.37-1.89,2.75-1.89,4.17l.87,24.9.63,11.42-.08,3.31.47,15.83c.31,10.82.47,20.22.47,28.2,0,1.73-.11,5.49-.32,11.26l-3.67.32c-1.84-2.1-8.17-8.71-19-19.85-2.52-2.57-4.23-4.39-5.12-5.44l-6.78-7.8c-2.63-2.89-4.34-4.73-5.12-5.51-.79-.79-1.37-1.37-1.73-1.73-5.73-6.51-13.16-14.66-22.3-24.42-2.47-2.63-6.1-6.73-10.88-12.29-3-3.52-4.89-5.67-5.68-6.46-.79-.79-1.87-1.68-3.23-2.68l-.24,2.68c0,10.24.26,24.37.79,42.38l.55,26.08c.05,2.2.18,4.33.39,6.38l2.76.63c4.99.47,9.9,1.18,14.73,2.13.37.31.68.55.95.71l-.08,2.99c-.84.26-1.52.4-2.05.4-.58,0-1.29-.05-2.13-.16-5.2-.42-11.53-.63-18.99-.63-5.25,0-9.88.13-13.86.4l-1.1.08c-.47,0-1.16-.05-2.05-.16l-.08-2.36,2.05-.95,3.7-.55c3.31-.47,5.72-1,7.25-1.57,1-.37,1.81-.92,2.44-1.66.58-3.62.87-8.93.87-15.91,0-3.26-.08-9.21-.24-17.88v-10.71l-.16-22.37c-.11-9.98-.45-15.86-1.02-17.65-.32-.95-.97-1.79-1.97-2.52-2-1.42-4.61-2.31-7.84-2.67-3.23-.37-5.32-.69-6.26-.95Z"/>
    <path class="st0" d="M841.34,185.76l.87,11.98c.32,3.62.47,6.09.47,7.4l-2.21.4c-3.52-7.98-7.89-13.97-13.12-17.96-5.23-3.99-11.62-5.98-19.18-5.98-9.25,0-16.44,1.13-21.59,3.39-7.46,3.2-13.84,8.77-19.14,16.7-5.31,7.93-7.96,17.49-7.96,28.68,0,6.46.97,12.26,2.91,17.41,1.94,5.15,4.69,9.94,8.23,14.38,3.55,4.44,7.73,8.29,12.57,11.54,3.15,2.15,6.9,3.78,11.27,4.89,2.47.58,6.14.87,11.03.87,3.15,0,6.64-.45,10.48-1.34,3.83-.89,6.72-2.09,8.67-3.58,1.94-1.5,3.27-3.19,3.98-5.08.71-1.89,1.06-5.57,1.06-11.03,0-9.08-.6-14.38-1.81-15.87-1.21-1.5-5.02-2.48-11.42-2.96l-3.15-.24-2.13.08c-.32-.05-.74-.13-1.26-.24l-1.18-1.97c0-.26.18-.6.55-1.02,2.73-.42,8.67-.63,17.81-.63,2.05,0,5.38.05,10.01.16l8.12.32,7.33-.08c1.42,0,3.12.05,5.12.16.37.05.6.15.71.28s.16.35.16.67c0,.58-.13,1.31-.39,2.2-2.21.48-3.91.71-5.12.71l-5.12-.08c-1.73,0-3.12.61-4.17,1.81-.53.58-.79,2.55-.79,5.91l.08,10.32c0,7.09-.29,11.61-.87,13.55-.32,1.16-.97,2.19-1.97,3.11-1,.92-3.1,2.01-6.3,3.27-4.57,1.84-8.72,3.07-12.45,3.7-6.93,1.21-13.63,1.81-20.09,1.81-10.4,0-18.92-1.33-25.57-3.98-6.64-2.65-12.37-6.34-17.17-11.07-4.8-4.72-8.23-9.5-10.28-14.34-3.1-7.09-4.65-14.31-4.65-21.66,0-9.19,2.43-18.19,7.29-26.98,4.86-8.79,12.7-15.95,23.52-21.47,7.61-3.89,17.96-5.83,31.04-5.83,9.03,0,16.43.79,22.18,2.36,5.75,1.57,10.31,3.36,13.67,5.35Z"/>
    <path class="st0" d="M497.71,200.1c-4.31-5.46-8.61-9.51-12.92-12.13-4.31-2.62-9.1-4.67-14.38-6.14-5.28-1.47-10.67-2.21-16.19-2.21-8.19,0-14.97.87-20.32,2.6-7.62,2.52-13.58,5.43-17.89,8.71-4.31,3.28-7.98,7.37-11.03,12.25-3.05,4.89-5.21,9.42-6.5,13.59-1.29,4.18-1.93,8.94-1.93,14.3,0,6.51,1,12.53,2.99,18.04,2,5.51,4.92,10.56,8.78,15.12,3.86,4.57,7.62,8.02,11.27,10.36,3.65,2.33,8.21,4.32,13.67,5.95,5.46,1.63,11.69,2.44,18.67,2.44s13.29-.93,19.22-2.8c5.93-1.86,10.9-4.32,14.89-7.37,5.99-4.52,10.21-8.51,12.68-11.97,3.15-4.46,5.4-8.98,6.74-13.55,1.34-4.57,2.01-10.32,2.01-17.25,0-6.09-1-12-2.99-17.73-1.52-4.36-3.78-8.43-6.78-12.21ZM491.25,248.24c-1.26,5.72-2.93,10.41-5,14.06-2.08,3.65-4.95,6.91-8.63,9.77-3.68,2.86-7.89,4.91-12.64,6.14-4.75,1.24-9.33,1.85-13.75,1.85-4.73,0-9.17-.83-13.32-2.49-4.15-1.65-7.89-4.04-11.23-7.17-3.34-3.12-6.15-6.71-8.43-10.75-2.29-4.05-4.08-8.82-5.4-14.34-1.31-5.51-1.97-10.45-1.97-14.81s.66-8.93,1.97-14.34c1.31-5.41,3.23-10.36,5.75-14.85,2.52-4.49,5.25-7.96,8.19-10.4,2.94-2.44,6.7-4.45,11.27-6.03,4.57-1.57,9.24-2.36,14.02-2.36,5.88,0,11.42,1.14,16.62,3.43,5.2,2.28,9.64,5.51,13.31,9.69,3.68,4.18,6.33,8.92,7.96,14.22,2.1,6.99,3.15,14.05,3.15,21.19,0,5.73-.63,11.45-1.89,17.18Z"/>
  </g>
  <g>
    <path class="st0" d="M473.39,396.56c9.64-16.79,16.2-26.74,19.68-29.85,1.3-1.23,2.53-1.84,3.69-1.84s2.21.94,3.15,2.82c.22,4.2.78,6.82,1.68,7.87.9,1.05,2.48,1.57,4.72,1.57,2.68,0,4.74-.83,6.18-2.49,2.1-2.39,3.15-5.24,3.15-8.58,0-2.97-.94-5.35-2.82-7.16-2.53-2.31-5.25-3.47-8.14-3.47-5.14,0-9.62,1.87-13.46,5.59-5.21,5.23-13.71,19.02-25.5,41.37-3.11,6.01-5.17,9.88-6.18,11.61l.43-1.96,5.64-13.35c1.87-4.26,3.98-10.09,6.35-17.47,2.37-7.38,3.95-13.04,4.75-16.98.29-1.22.44-2.44.44-3.65s-.34-2.26-1.03-3.12c-.69-.86-1.93-1.54-3.74-2.04-2.88.22-5.48,1.02-7.79,2.39-3.61,2.1-7.87,6.01-12.78,11.72-4.91,5.72-8.26,10.53-10.07,14.43l4.45-.22c6-8.03,9.29-12.37,9.88-13.02,2.1-2.32,4.34-4.34,6.73-6.08,1.44,1.14,2.17,2.07,2.17,2.78l-.65,1.61c-.22.57-.58,1.89-1.08,3.97l-7.6,23.22c-6.87,20.4-11.87,34.4-14.98,42-.72,1.88-1.09,3.55-1.09,4.99,0,1.08.41,1.97,1.24,2.66.82.69,2.21,1.03,4.15,1.03,2.15,0,3.63-.62,4.42-1.87,1.52-2.46,3.49-6.95,5.92-13.49,2.43-6.54,8.46-18.2,18.1-34.99Z"/>
    <path class="st0" d="M432.43,382.66c0-9.69-1.74-16.66-5.21-20.89-3.47-4.23-7.74-6.35-12.8-6.35-5.5,0-10.89,1.7-16.17,5.1-5.28,3.4-9.84,7.6-13.67,12.59-1.3,1.74-2.46,3.22-3.47,4.45-4.49,5.43-8.14,12.25-10.96,20.46-2.82,8.21-4.23,15.46-4.23,21.76,0,9.33,1.81,16.19,5.42,20.56,3.62,4.38,8.36,6.56,14.22,6.56,10.92,0,21.47-6.51,31.63-19.53,10.16-13.03,15.25-27.93,15.25-44.71ZM396.18,436.81c-3.47,3.33-6.91,4.99-10.31,4.99s-5.99-.8-7.54-2.39c-1.56-1.59-2.33-4.05-2.33-7.38,0-7.52,2.32-17.29,6.95-29.3,5.72-14.76,12.52-26.34,20.4-34.73,4.63-4.99,9.08-7.49,13.35-7.49,1.95,0,3.69.89,5.21,2.66,1.52,1.77,2.28,4.18,2.28,7.22,0,8.54-3.11,20.22-9.33,35.05-6.22,14.83-12.44,25.29-18.67,31.36Z"/>
    <path class="st0" d="M393.57,311.91c.65,2.6,1.72,4.52,3.2,5.75,1.48,1.23,3.16,1.85,5.05,1.85,1.45,0,2.75-.64,3.91-1.9,1.16-1.27,1.73-2.77,1.73-4.5,0-2.67-1.41-5.26-4.23-7.76-2.82-2.49-6.55-3.74-11.18-3.74-3.76,0-6.84.65-9.22,1.96-4.99,2.6-9.3,6.04-12.91,10.31-4.7,5.64-8.32,11.25-10.85,16.82-4.05,9.33-7.67,19.32-10.85,29.95l-15.74.54c-1.74.07-3.36.18-4.88.32-.22,1.59-.44,3.4-.65,5.43,6.73,0,11-.05,12.81-.16,1.81-.11,2.96-.16,3.47-.16.65,0,1.63.04,2.93.11-1.01,2.68-2.5,7.27-4.45,13.78l-7.16,25.61c-.65,2.68-1.3,5.14-1.95,7.38l-10.64,36.57c-2.53,8.55-5.44,16.55-8.74,23.99-3.29,7.43-6.82,13.14-10.58,17.13-4.48,3.48-8.25,5.22-11.29,5.22-2.1,0-4.05-.9-5.86-2.71-.8-.94-1.59-2.13-2.39-3.58-1.88-3.33-4.05-4.99-6.51-4.99-.72,0-1.81.32-3.25.97-1.95,1.15-2.93,2.98-2.93,5.5,0,2.66,1.18,4.94,3.53,6.85,2.35,1.9,6.57,2.86,12.64,2.86,4.41,0,7.99-.58,10.74-1.74,4.27-1.74,8.32-4.45,12.15-8.14,5.21-5.14,9.57-10.92,13.08-17.36,3.51-6.44,7.04-14.61,10.58-24.52l8.03-25.72c.29-1.74,1.09-4.3,2.39-7.7.36-1.09.79-2.49,1.3-4.23l9.11-32.78,3.58-12.15,17.91-.65c.43-1.59.65-2.93.65-4.02,0-.36-.04-.87-.11-1.52-1.81-.15-2.93-.22-3.37-.22l-10.21.22-2.93-.22c.29-2.03,1.68-7.33,4.18-15.9,2.49-8.57,4.81-15.17,6.95-19.8,2.13-4.63,4.14-8.14,6.03-10.53,2.67-3.25,5.14-5.46,7.38-6.62,1.09-.58,2.35-.87,3.8-.87s2.75.36,3.69,1.09c.87.79,1.56,2.13,2.06,4.02Z"/>
  </g>
</svg>